HIERARCHY
ROOT Hips
{
  OFFSET -33.9132 29.2015 117.021
  CHANNELS 6 Xposition Yposition Zposition Zrotation Xrotation Yrotation
  JOINT LeftUpLeg
  {
    OFFSET 8.64259 1.95398 -2.38835
    CHANNELS 3 Zrotation Xrotation Yrotation
    JOINT LeftLeg
    {
      OFFSET 43.7702 0 0
      CHANNELS 3 Zrotation Xrotation Yrotation
      JOINT LeftFoot
      {
        OFFSET 40.6238 0 0
        CHANNELS 3 Zrotation Xrotation Yrotation
        JOINT LeftToeBase
        {
          OFFSET 12.7242 0 0
          CHANNELS 3 Zrotation Xrotation Yrotation
          End Site
          {
            OFFSET 0 0 0
          }
        }
      }
    }
  }
  JOINT RightUpLeg
  {
    OFFSET -8.2249 1.95398 -2.59336
    CHANNELS 3 Zrotation Xrotation Yrotation
    JOINT RightLeg
    {
      OFFSET 43.5653 0 0
      CHANNELS 3 Zrotation Xrotation Yrotation
      JOINT RightFoot
      {
        OFFSET 40.6238 0 0
        CHANNELS 3 Zrotation Xrotation Yrotation
        JOINT RightToeBase
        {
          OFFSET 12.7242 0 0
          CHANNELS 3 Zrotation Xrotation Yrotation
          End Site
          {
            OFFSET 0 0 0
          }
        }
      }
    }
  }
  JOINT Spine
  {
    OFFSET 0.165834 0.87714 6.61349
    CHANNELS 3 Zrotation Xrotation Yrotation
    JOINT Spine1
    {
      OFFSET 7.38963 1.71661e-005 0
      CHANNELS 3 Zrotation Xrotation Yrotation
      JOINT Spine2
      {
        OFFSET 11.9445 1.14441e-005 0
        CHANNELS 3 Zrotation Xrotation Yrotation
        JOINT Spine3
        {
          OFFSET 14.7254 4.19617e-005 0
          CHANNELS 3 Zrotation Xrotation Yrotation
          JOINT Spine4
          {
            OFFSET 10.9679 0 0
            CHANNELS 3 Zrotation Xrotation Yrotation
            JOINT RightShoulder
            {
              OFFSET 2.46616 -1.6653 3.69651
              CHANNELS 3 Zrotation Xrotation Yrotation
              JOINT RightArm
              {
                OFFSET 13.0012 0 0
                CHANNELS 3 Zrotation Xrotation Yrotation
                JOINT RightForeArm
                {
                  OFFSET 28.7848 1.62311e-005 0
                  CHANNELS 3 Zrotation Xrotation Yrotation
                  JOINT RightHand
                  {
                    OFFSET 26.5688 1.62095e-005 0
                    CHANNELS 3 Zrotation Xrotation Yrotation
                    End Site
                    {
                      OFFSET 0 0 0
                    }
                  }
                }
              }
            }
            JOINT LeftShoulder
            {
              OFFSET 2.38034 -1.29275 -3.7523
              CHANNELS 3 Zrotation Xrotation Yrotation
              JOINT LeftArm
              {
                OFFSET 16.3182 6.07031e-005 0
                CHANNELS 3 Zrotation Xrotation Yrotation
                JOINT LeftForeArm
                {
                  OFFSET 27.0901 0 0
                  CHANNELS 3 Zrotation Xrotation Yrotation
                  JOINT LeftHand
                  {
                    OFFSET 24.5451 1.51738e-005 0
                    CHANNELS 3 Zrotation Xrotation Yrotation
                    End Site
                    {
                      OFFSET 0 0 0
                    }
                  }
                }
              }
            }
            JOINT Neck
            {
              OFFSET 5.0226 -0.0266342 0
              CHANNELS 3 Zrotation Xrotation Yrotation
              JOINT Head
              {
                OFFSET 6.69364 2.86102e-005 0
                CHANNELS 3 Zrotation Xrotation Yrotation
                End Site
                {
                  OFFSET 0 0 0
                }
              }
            }
          }
        }
      }
    }
  }
}
MOTION
Frames:	7
Frame Time:	0.0416667
-306.243 88.6549 -285.955 -109.197 60.0751 -75.0529 -168.371 1.87808 99.0771 125.197 -72.125 -158.576 -9.52823 -23.5133 -62.0186 -130.896 6.73672 -44.6692 -166.44 30.1284 93.2591 -62.9633 -23.9618 -9.29943 68.0149 -10.3205 -3.52112 26.1387 -0.16515 5.09496 3.41988 12.82 -91.3603 1.27828 6.30875 -2.44843 -10.3802 6.19491 -2.72455 -33.0373 6.75171 -0.431167 -13.0247 6.75172 -0.431178 99.7857 13.8845 -100.497 33.1426 -0.712432 37.7882 -15.1567 0.993827 -98.8959 -45.6355 7.76845 -23.7648 -95.0353 -31.6433 64.6175 -49.9308 -3.75336 -72.8185 57.4993 57.9178 -61.5467 35.8166 -15.9253 -43.52 23.2094 -0.3856 19.6723 29.0903 -7.76631 -2.56976 
-301.952 89.7282 -281.59 -108.642 57.9608 -76.5596 -166.052 -2.06896 96.7017 -78.4368 -67.9006 -5.10059 36.2628 -6.472 -99.1868 -22.5537 14.944 -34.6909 -167.711 30.1653 91.6864 -55.4674 -25.2998 -8.82022 62.496 -6.25537 -1.69688 24.0146 0.395093 6.1615 2.26535 12.8775 -90.6562 1.13124 4.2723 -1.13249 -10.5334 4.21831 -1.31972 -33.1243 4.4147 0.206283 -13.1116 4.4147 0.206278 99.6787 10.3335 -97.2819 36.0883 -14.4001 39.7791 -11.9975 1.66269 -105.637 -48.5741 9.47213 -26.242 -89.9901 -27.0391 72.2946 -46.761 -8.0036 -80.9173 55.529 52.0159 -61.2422 39.686 -20.3201 -49.1782 29.4835 3.20539 16.4476 25.7999 -4.76389 -5.42211 
-297.125 90.116 -275.695 -110.327 53.9808 -75.6572 -166.28 -3.29802 91.3202 -67.6972 0.98834 -0.866375 109.633 13.9342 -7.93178 13.9337 -10.8766 1.75935 -170.674 29.6325 90.8842 -47.7397 -27.9249 -8.85994 55.2141 0.554422 -0.167062 19.8742 1.5577 7.73222 0.827738 12.9129 -89.8199 1.04307 1.71991 0.410267 -10.6268 1.73627 0.334144 -33.1688 1.5171 0.908338 -13.1562 1.5171 0.908339 99.4498 2.10019 -94.8779 34.2502 -24.967 40.5864 -12.1277 2.97516 -113.556 -51.6017 11.8473 -29.6897 -83.4548 -16.367 83.2287 -37.9319 -15.3832 -82.2226 43.054 43.3117 -55.4132 40.445 -20.7501 -49.0855 38.6533 5.79276 6.38181 15.652 1.41052 -5.93902 
-292.295 92.8799 -269.603 -111.768 50.0477 -72.6319 -168.581 -4.39148 91.7305 -62.2922 17.4338 -0.123139 80.2083 18.9361 15.1982 18.5332 -4.64178 -0.354157 -174.939 22.4782 91.1781 -29.9178 -36.6843 -7.76368 53.2643 3.29227 2.05227 15.4395 3.56928 7.10352 0.204509 12.5601 -89.6095 1.75028 0.558678 0.772481 -9.92076 0.592127 0.747138 -32.4544 0.300703 0.904676 -12.4418 0.3007 0.904663 98.432 -7.53652 -94.7107 35.0772 -26.4652 47.9328 -9.77317 2.45512 -116.733 -48.6984 14.0372 -36.0252 -80.8761 -5.45616 87.0607 -27.8758 -16.4703 -72.4636 43.7178 43.0344 -56.9095 41.2464 -20.6182 -47.8683 41.1387 3.91502 -5.15371 4.99119 6.01571 -2.12752 
-286.662 95.08 -263.394 -107.934 46.8883 -72.1984 -170.133 -0.00555811 94.6295 -55.6776 9.7799 1.16959 72.6863 9.08345 4.64872 23.988 -2.49739 0.596802 -174.718 22.4486 92.5451 -32.1637 -33.2698 -8.39136 59.4437 -0.436413 -0.635276 8.25819 5.94069 8.48841 0.0751714 11.6154 -89.9785 3.64312 0.158786 0.0423741 -8.02781 0.160487 0.0353391 -30.563 0.138707 0.0881357 -10.5504 0.138718 0.0881376 96.6455 -18.7753 -95.8655 34.7562 -15.5124 51.3184 -18.3004 5.55372 -113.876 -49.4695 15.7137 -38.9474 -81.3468 -4.37932 85.4809 -13.6215 -9.31381 -58.0527 36.956 39.2221 -53.7685 39.0342 -20.3311 -49.9042 38.529 2.291 -11.9156 -0.678528 7.81982 1.71623 
-279.981 93.3305 -255.926 -106.896 45.4514 -72.6248 -171.128 4.63976 94.1617 -54.8092 13.0707 1.33107 75.9081 12.8035 7.12555 38.9754 1.17499 10.3114 -176.883 26.1668 91.7954 -52.9318 -17.5991 -6.23799 66.0553 -4.15909 -1.88028 15.9737 2.99758 8.02057 -0.162981 10.9837 -89.6628 4.90642 -0.187324 0.667573 -6.76469 -0.157756 0.675163 -29.2988 -0.379287 0.580422 -9.28616 -0.379292 0.580416 90.4329 -33.8308 -104.62 27.6828 9.2993 47.4233 -29.4744 8.12542 -109.378 -41.0739 16.3611 -47.779 -82.4179 -6.72354 82.7812 -10.3996 3.92131 -37.5798 31.1678 32.6652 -50.9451 34.496 -19.2737 -53.4322 37.1203 0.420916 -20.4158 -4.06575 9.83861 5.62394 
-272.832 90.9969 -247.764 -106.879 44.861 -72.9857 -171.645 12.6462 93.2864 -58.8533 10.035 1.30366 81.1026 15.5644 3.67733 35.8677 1.06189 5.93979 179.97 26.4263 90.5165 -75.0931 -10.163 -4.93667 67.4353 -5.2877 -3.59646 17.1207 2.67073 7.68173 0.28295 10.2748 -89.9135 6.3236 0.601818 0.15158 -5.34718 0.60792 0.124934 -27.8833 0.528416 0.325444 -7.87066 0.528441 0.325453 93.0681 -38.8928 -98.3379 24.2703 20.8058 41.647 -35.5387 11.1691 -110.247 -34.3053 16.3271 -55.8933 -84.7096 -18.091 80.547 -12.9334 11.9555 -23.8047 23.7223 33.2873 -43.4505 28.5313 -15.5662 -52.5364 33.7167 -0.870847 -18.0849 -5.29354 6.89832 5.9584 
